# xmcd CD database file
#
# Track frame offsets:
#	150
#	36925
#	65350
#	102700
#	145975
#	172825
#	213075
#	233425
#	260950
#	307900
#
# Disc length: 4377 seconds
#
# Revision: 0
# Processed by: cddbd v1.5.1PL0 Copyright (c) Steve Scherf et al.
# Submitted via: CDex 1.51
#
DISCID=8811170a
DTITLE=Joe Henderson - So Near, So Far
DYEAR=1993
DGENRE=Jazz
TTITLE0=Miles Ahead
TTITLE1=Joshua
TTITLE2=Phrancing (No Blues)
TTITLE3=Flamenco Scetches
TTITLE4=Milestones
TTITLE5=Teo
TTITLE6=Swing Spring
TTITLE7=Circle
TTITLE8=Side Car
TTITLE9=So Near, So Far
EXTD=YEAR: 1993
EXTT0=
EXTT1=
EXTT2=
EXTT3=
EXTT4=
EXTT5=
EXTT6=
EXTT7=
EXTT8=
EXTT9=
PLAYORDER=
